<?xml version="1.0" encoding="UTF-8"?>
<svg width="268px" height="30px" viewBox="0 0 268 30" version="1.1" xmlns="http://www.w3.org/2000/svg" xmlns:xlink="http://www.w3.org/1999/xlink">
    <title>Group 19</title>
    <g id="웹뷰" stroke="none" stroke-width="1" fill="none" fill-rule="evenodd">
        <g id="Group-19" transform="translate(0.000000, 0.264000)">
            <rect id="home_title_main_underline" fill="#FFEA01" x="0" y="16.736" width="268" height="13"></rect>
            <path d="M7.34179688,22.736 L7.34179688,14.7789688 L15.203125,14.7789688 L15.203125,22.736 L20.2070312,22.736 L20.2070312,3.00748438 L15.203125,3.00748438 L15.203125,10.7457656 L7.34179688,10.7457656 L7.34179688,3.00748438 L2.32421875,3.00748438 L2.32421875,22.736 L7.34179688,22.736 Z M31.0996094,23.0914688 C35.9804688,23.0914688 37.8398438,20.2340469 38.2773438,18.4156875 L38.3183594,18.251625 L33.8886719,18.2652969 L33.8613281,18.3199844 C33.6425781,18.7164688 32.8085938,19.6461563 31.1953125,19.6461563 C29.3359375,19.6461563 28.2148438,18.3883438 28.1738281,16.2145156 L38.4140625,16.2145156 L38.4140625,14.8199844 C38.4140625,10.1715469 35.5019531,7.16373438 30.921875,7.16373438 C26.328125,7.16373438 23.4160156,10.2125625 23.4160156,15.1207656 L23.4160156,15.1344375 C23.4160156,20.0699844 26.328125,23.0914688 31.0996094,23.0914688 Z M33.8339844,13.3981094 L28.2285156,13.3981094 C28.4609375,11.6070938 29.5410156,10.6090469 31.03125,10.6090469 C32.5351563,10.6090469 33.6015625,11.57975 33.8339844,13.3981094 Z M46.1484375,22.736 L46.1484375,1.81803125 L41.3085938,1.81803125 L41.3085938,22.736 L46.1484375,22.736 Z M54.7714844,22.736 L54.7714844,1.81803125 L49.9316407,1.81803125 L49.9316407,22.736 L54.7714844,22.736 Z M65.4179688,23.0914688 C70.2988282,23.0914688 73.1699219,20.1383438 73.1699219,15.1344375 L73.1699219,15.1070938 C73.1699219,10.1715469 70.2304688,7.16373438 65.4179688,7.16373438 C60.6328126,7.16373438 57.6660157,10.1988906 57.6660157,15.1070938 L57.6660157,15.1344375 C57.6660157,20.1246719 60.5507813,23.0914688 65.4179688,23.0914688 Z M65.4179688,19.4137344 C63.6406251,19.4137344 62.6289063,17.8414688 62.6289063,15.1344375 L62.6289063,15.1070938 C62.6289063,12.4684219 63.6679688,10.8414688 65.4179688,10.8414688 C67.1679688,10.8414688 68.2070313,12.4684219 68.2070313,15.1070938 L68.2070313,15.1344375 C68.2070313,17.8277969 67.1953126,19.4137344 65.4179688,19.4137344 Z M81.5605469,16.2692031 L81.9980469,3.00748438 L76.7480469,3.00748438 L77.1855469,16.2692031 L81.5605469,16.2692031 Z M79.3730469,23.2145156 C81.1367188,23.2145156 82.1757813,22.2985 82.1757813,20.7262344 C82.1757813,19.1402969 81.1367188,18.2242813 79.3730469,18.2242813 C77.6093751,18.2242813 76.5839844,19.1402969 76.5839844,20.7262344 C76.5839844,22.2985 77.6093751,23.2145156 79.3730469,23.2145156 Z M111.508359,18.088 L111.508359,10.08 L114.980359,10.08 L114.980359,7.028 L111.508359,7.028 L111.508359,3.63797881e-12 L107.812359,3.63797881e-12 L107.812359,18.088 L111.508359,18.088 Z M104.368359,13.748 L104.368359,2.044 L92.5523595,2.044 L92.5523595,13.748 L104.368359,13.748 Z M100.700359,10.836 L96.1923595,10.836 L96.1923595,4.956 L100.700359,4.956 L100.700359,10.836 Z M112.012359,24.248 L112.012359,21.336 L98.8243595,21.336 L98.8243595,16.324 L95.1563595,16.324 L95.1563595,24.248 L112.012359,24.248 Z M135.478359,24.948 L135.478359,12.376 L139.118359,12.376 L139.118359,9.324 L135.478359,9.324 L135.478359,3.63797881e-12 L131.726359,3.63797881e-12 L131.726359,24.948 L135.478359,24.948 Z M119.266359,18.872 C122.346359,18.872 127.106359,18.452 130.298359,17.696 C130.158359,16.772 130.018359,15.764 129.850359,14.784 C127.610359,15.232 124.082359,15.652 121.114359,15.652 L120.442359,15.652 L120.442359,2.436 L116.774359,2.436 L116.774359,18.872 L119.266359,18.872 Z M160.68036,24.948 L160.68036,3.63797881e-12 L156.92836,3.63797881e-12 L156.92836,8.428 L152.39236,8.428 L152.39236,11.508 L156.92836,11.508 L156.92836,24.948 L160.68036,24.948 Z M141.50036,19.852 C143.74036,18.676 146.62436,15.568 147.24036,12.992 C147.99636,15.456 150.85236,18.088 152.95236,19.236 L155.05236,16.24 C151.13236,14.028 149.14436,10.584 149.14436,5.376 L149.14436,2.044 L145.30836,2.044 L145.30836,5.488 C145.30836,10.724 143.37636,14.448 139.23236,16.996 L141.50036,19.852 Z M190.045313,17.976 L190.045313,9.884 L193.517313,9.884 L193.517313,6.86 L190.045313,6.86 L190.045313,3.63797881e-12 L186.377313,3.63797881e-12 L186.377313,17.976 L190.045313,17.976 Z M183.017313,14.56 L183.017313,1.792 L179.321313,1.792 L179.321313,5.628 L174.589313,5.628 L174.589313,1.792 L170.949313,1.792 L170.949313,14.56 L183.017313,14.56 Z M179.321313,11.732 L174.589313,11.732 L174.589313,8.4 L179.321313,8.4 L179.321313,11.732 Z M190.521313,24.248 L190.521313,21.336 L177.277313,21.336 L177.277313,16.352 L173.581313,16.352 L173.581313,24.248 L190.521313,24.248 Z M213.903313,24.948 L213.903313,12.46 L217.487313,12.46 L217.487313,9.408 L213.903313,9.408 L213.903313,3.63797881e-12 L210.207313,3.63797881e-12 L210.207313,24.948 L213.903313,24.948 Z M196.151313,20.636 C204.271313,16.184 207.239313,9.884 207.435313,2.576 L195.591313,2.576 L195.591313,5.628 L203.515313,5.628 C203.011313,10.388 199.511313,15.176 194.079313,17.724 L196.151313,20.636 Z M239.693313,24.948 L239.693313,3.63797881e-12 L235.941313,3.63797881e-12 L235.941313,16.716 L231.041313,16.716 L231.041313,19.46 L235.941313,19.46 L235.941313,24.948 L239.693313,24.948 Z M226.393313,11.648 C230.397313,11.648 233.113313,9.436 233.113313,6.44 C233.113313,3.36 230.481313,1.036 226.393313,1.036 C222.361313,1.036 219.701313,3.36 219.701313,6.44 C219.701313,9.436 222.361313,11.648 226.393313,11.648 Z M226.393313,8.708 C224.657313,8.708 223.481313,7.672 223.481313,6.412 C223.481313,5.096 224.685313,4.06 226.393313,4.06 C228.185313,4.06 229.333313,5.096 229.333313,6.412 C229.333313,7.672 228.213313,8.708 226.393313,8.708 Z M228.129313,24.22 L228.129313,15.568 C230.313313,15.456 232.273313,15.26 234.429313,14.98 L234.205313,12.152 C232.469313,12.404 229.529313,12.572 226.309313,12.74 C223.957313,12.824 221.017313,12.908 218.049313,12.908 L218.497313,15.876 C220.009313,15.876 222.109313,15.848 224.405313,15.764 L224.405313,24.22 L228.129313,24.22 Z M253.611313,14.308 C259.239313,14.308 262.907313,11.648 262.907313,7.812 C262.907313,4.004 259.239313,1.372 253.611313,1.372 C248.011313,1.372 244.343313,4.004 244.343313,7.812 C244.343313,11.648 248.011313,14.308 253.611313,14.308 Z M253.611313,11.508 C250.251313,11.508 248.095313,9.968 248.095313,7.84 C248.095313,5.768 250.251313,4.228 253.611313,4.228 C256.971313,4.228 259.127313,5.768 259.127313,7.84 C259.127313,9.968 256.915313,11.508 253.611313,11.508 Z M264.895313,21.868 L264.895313,18.928 L260.051313,18.928 L260.051313,15.008 L256.271313,15.176 L256.271313,18.928 L250.923313,18.928 L250.923313,15.176 L247.143313,15.008 L247.143313,18.928 L242.355313,18.928 L242.355313,21.868 L264.895313,21.868 Z" id="Hello!만나서반가워요" fill="#000000" fill-rule="nonzero"></path>
        </g>
    </g>
</svg>